<svg width="146" height="146" viewBox="0 0 146 146" fill="none" xmlns="http://www.w3.org/2000/svg">
<g id="Frame 17">
<g id="Group 6">
<path id="u" d="M101.25 92.4949C103.137 92.4949 104.734 91.8065 106.04 90.4296C107.347 89.1253 108 87.5311 108 85.647V57.3862C108 52.6036 107.056 48.0746 105.169 43.7992C103.355 39.5963 100.851 35.9007 97.6578 32.7123C94.537 29.5963 90.8356 27.0963 86.5536 25.2123C82.3442 23.4007 77.8444 22.4949 73.0544 22.4949C68.1918 22.4949 63.6194 23.4007 59.3374 25.2123C55.128 27.0963 51.4266 29.5963 48.2332 32.7123C45.1124 35.9007 42.6085 39.5963 40.7216 43.7992C38.9071 48.0746 37.9999 52.6036 37.9999 57.3862V85.647C37.9999 87.5311 38.6531 89.1253 39.9595 90.4296C41.3385 91.8065 42.9714 92.4949 44.8584 92.4949C46.7454 92.4949 48.3421 91.8065 49.6485 90.4296C50.9548 89.1253 51.608 87.5311 51.608 85.647V57.3862C51.608 54.4152 52.1524 51.6253 53.241 49.0166C54.4022 46.4804 55.9263 44.234 57.8133 42.2775C59.7729 40.321 62.059 38.763 64.6718 37.6036C67.2845 36.5166 70.0787 35.9731 73.0544 35.9731C75.9574 35.9731 78.7153 36.5166 81.3281 37.6036C83.9408 38.763 86.227 40.321 88.1866 42.2775C90.1461 44.234 91.6702 46.4804 92.7589 49.0166C93.9201 51.6253 94.5007 54.4152 94.5007 57.3862H94.3919V85.647C94.3919 87.5311 95.045 89.1253 96.3514 90.4296C97.7304 91.8065 99.3633 92.4949 101.25 92.4949Z" fill="white"/>
<path id="Ellipse 3" d="M80.5363 46.2631C80.5363 50.5533 77.0584 54.0313 72.7681 54.0313C68.4779 54.0313 64.9999 50.5533 64.9999 46.2631C64.9999 41.9728 68.4779 38.4949 72.7681 38.4949C77.0584 38.4949 80.5363 41.9728 80.5363 46.2631Z" fill="white"/>
<path id="Ellipse 1 (Stroke)" fill-rule="evenodd" clip-rule="evenodd" d="M72.9568 111.196C84.9662 111.196 94.7017 101.569 94.7017 89.693C94.7017 77.8171 84.9662 68.1898 72.9568 68.1898C60.9475 68.1898 51.212 77.8171 51.212 89.693C51.212 101.569 60.9475 111.196 72.9568 111.196ZM72.9568 124.261C92.263 124.261 107.914 108.785 107.914 89.693C107.914 70.6014 92.263 55.1245 72.9568 55.1245C53.6507 55.1245 37.9999 70.6014 37.9999 89.693C37.9999 108.785 53.6507 124.261 72.9568 124.261Z" fill="white"/>
</g>
</g>
</svg>
