<svg width="146" height="146" viewBox="0 0 146 146" fill="none" xmlns="http://www.w3.org/2000/svg">
<g id="Frame 17">
<g id="Group 1813">
<g id="Group 1808">
<g id="Group 8">
<path id="u" d="M83.0743 95.8655C84.6302 95.8655 85.9468 95.2978 87.024 94.1625C88.1012 93.087 88.6398 91.7725 88.6398 90.2189V66.9157C88.6398 62.972 87.8619 59.2376 86.3059 55.7122C84.8098 52.2466 82.7451 49.1992 80.112 46.5702C77.5386 44.0008 74.4865 41.9394 70.9557 40.3858C67.4847 38.892 63.7743 38.1451 59.8246 38.1451C55.815 38.1451 52.0447 38.892 48.5139 40.3858C45.0429 41.9394 41.9908 44.0008 39.3576 46.5702C36.7843 49.1992 34.7196 52.2466 33.1637 55.7122C31.6676 59.2376 30.9195 62.972 30.9195 66.9157V90.2189C30.9195 91.7725 31.4581 93.087 32.5353 94.1625C33.6724 95.2978 35.0189 95.8655 36.5748 95.8655C38.1308 95.8655 39.4474 95.2978 40.5246 94.1625C41.6018 93.087 42.1404 91.7725 42.1404 90.2189V66.9157C42.1404 64.4658 42.5892 62.1654 43.4869 60.0143C44.4444 57.923 45.7012 56.0707 47.2571 54.4574C48.8729 52.8441 50.7581 51.5594 52.9125 50.6034C55.0669 49.7071 57.3709 49.259 59.8246 49.259C62.2183 49.259 64.4925 49.7071 66.6469 50.6034C68.8013 51.5594 70.6864 52.8441 72.3022 54.4574C73.918 56.0707 75.1748 57.923 76.0724 60.0143C77.0299 62.1654 77.5087 64.4658 77.5087 66.9157H77.4189V90.2189C77.4189 91.7725 77.9575 93.087 79.0347 94.1625C80.1718 95.2978 81.5183 95.8655 83.0743 95.8655Z" fill="white"/>
<path id="u_2" d="M83.0743 74.9338C84.6302 74.9338 85.9468 75.5015 87.024 76.6368C88.1012 77.7123 88.6398 79.0268 88.6398 80.5804V103.884C88.6398 107.827 87.8619 111.562 86.3059 115.087C84.8098 118.553 82.7451 121.6 80.112 124.229C77.5386 126.798 74.4865 128.86 70.9557 130.413C67.4847 131.907 63.7743 132.654 59.8246 132.654C55.815 132.654 52.0447 131.907 48.5139 130.413C45.0429 128.86 41.9908 126.798 39.3576 124.229C36.7843 121.6 34.7196 118.553 33.1637 115.087C31.6676 111.562 30.9195 107.827 30.9195 103.884V80.5804C30.9195 79.0268 31.4581 77.7123 32.5353 76.6368C33.6724 75.5015 35.0189 74.9338 36.5748 74.9338C38.1308 74.9338 39.4474 75.5015 40.5246 76.6368C41.6018 77.7123 42.1404 79.0268 42.1404 80.5804V103.884C42.1404 106.333 42.5892 108.634 43.4869 110.785C44.4444 112.876 45.7012 114.729 47.2571 116.342C48.8729 117.955 50.7581 119.24 52.9125 120.196C55.0669 121.092 57.3709 121.54 59.8246 121.54C62.2183 121.54 64.4925 121.092 66.6469 120.196C68.8013 119.24 70.6864 117.955 72.3022 116.342C73.918 114.729 75.1748 112.876 76.0724 110.785C77.0299 108.634 77.5087 106.333 77.5087 103.884H77.4189V80.5804C77.4189 79.0268 77.9575 77.7123 79.0347 76.6368C80.1718 75.5015 81.5183 74.9338 83.0743 74.9338Z" fill="white"/>
<path id="Ellipse 3" d="M65.8056 18.4823C65.8056 21.9854 62.9658 24.8252 59.4627 24.8252C55.9596 24.8252 53.1198 21.9854 53.1198 18.4823C53.1198 14.9792 55.9596 12.1394 59.4627 12.1394C62.9658 12.1394 65.8056 14.9792 65.8056 18.4823Z" fill="white"/>
<path id="Ellipse 1 (Stroke)" fill-rule="evenodd" clip-rule="evenodd" d="M88.6398 117.546C98.4456 117.546 106.395 109.685 106.395 99.9883C106.395 90.2914 98.4456 82.4305 88.6398 82.4305C78.8339 82.4305 70.8847 90.2914 70.8847 99.9883C70.8847 109.685 78.8339 117.546 88.6398 117.546ZM88.6398 128.214C104.404 128.214 117.183 115.577 117.183 99.9883C117.183 84.3996 104.404 71.7625 88.6398 71.7625C72.8759 71.7625 60.0967 84.3996 60.0967 99.9883C60.0967 115.577 72.8759 128.214 88.6398 128.214Z" fill="white"/>
</g>
</g>
</g>
</g>
</svg>
