<svg width="146" height="145" viewBox="0 0 146 145" fill="none" xmlns="http://www.w3.org/2000/svg">
<path d="M85.7232 97.9525C87.4858 97.9525 88.9772 97.3023 90.1975 96.002C91.4177 94.7701 92.0279 93.2645 92.0279 91.4851V64.7941C92.0279 60.2772 91.1466 55.9998 89.384 51.9619C87.6892 47.9925 85.3504 44.5021 82.3676 41.4908C79.4525 38.548 75.9951 36.1869 71.9954 34.4075C68.0635 32.6965 63.8605 31.841 59.3862 31.841C54.8442 31.841 50.5733 32.6965 46.5736 34.4075C42.6417 36.1869 39.1843 38.548 36.2015 41.4908C33.2865 44.5021 30.9476 47.9925 29.1851 51.9619C27.4903 55.9998 26.6429 60.2772 26.6429 64.7941V91.4851C26.6429 93.2645 27.253 94.7701 28.4733 96.002C29.7613 97.3023 31.2866 97.9525 33.0492 97.9525C34.8118 97.9525 36.3032 97.3023 37.5234 96.002C38.7437 94.7701 39.3538 93.2645 39.3538 91.4851V64.7941C39.3538 61.9881 39.8622 59.3533 40.8791 56.8895C41.9638 54.4941 43.3874 52.3725 45.15 50.5247C46.9804 48.6769 49.1158 47.2054 51.5563 46.1104C53.9968 45.0839 56.6068 44.5706 59.3862 44.5706C62.0979 44.5706 64.674 45.0839 67.1145 46.1104C69.555 47.2054 71.6904 48.6769 73.5208 50.5247C75.3511 52.3725 76.7748 54.4941 77.7916 56.8895C78.8763 59.3533 79.4186 61.9881 79.4186 64.7941H79.3169V91.4851C79.3169 93.2645 79.9271 94.7701 81.1473 96.002C82.4353 97.3023 83.9607 97.9525 85.7232 97.9525Z" fill="white"/>
<path d="M112.767 61.7981C114.549 61.7981 116.057 62.4482 117.291 63.7486C118.524 64.9805 119.141 66.4861 119.141 68.2655V94.9565C119.141 99.4734 118.25 103.751 116.468 107.789C114.755 111.758 112.39 115.248 109.374 118.26C106.426 121.203 102.931 123.564 98.8864 125.343C94.9108 127.054 90.661 127.91 86.1371 127.91C81.5446 127.91 77.2262 127.054 73.1821 125.343C69.2065 123.564 65.7107 121.203 62.6947 118.26C59.7473 115.248 57.3825 111.758 55.6003 107.789C53.8867 103.751 53.0299 99.4734 53.0299 94.9565V68.2655C53.0299 66.4861 53.6468 64.9805 54.8806 63.7486C56.183 62.4482 57.7252 61.7981 59.5074 61.7981C61.2896 61.7981 62.7975 62.4482 64.0314 63.7486C65.2652 64.9805 65.8821 66.4861 65.8821 68.2655V94.9565C65.8821 97.7624 66.3961 100.397 67.4243 102.861C68.521 105.256 69.9605 107.378 71.7426 109.226C73.5934 111.074 75.7525 112.545 78.2201 113.64C80.6877 114.667 83.3267 115.18 86.1371 115.18C88.8789 115.18 91.4836 114.667 93.9512 113.64C96.4188 112.545 98.5779 111.074 100.429 109.226C102.279 107.378 103.719 105.256 104.747 102.861C105.844 100.397 106.392 97.7624 106.392 94.9565H106.289V68.2655C106.289 66.4861 106.906 64.9805 108.14 63.7486C109.442 62.4482 110.985 61.7981 112.767 61.7981Z" fill="white"/>
<path d="M119.213 42.9188C119.213 46.9312 115.798 50.1838 111.585 50.1838C107.372 50.1838 103.957 46.9312 103.957 42.9188C103.957 38.9065 107.372 35.6538 111.585 35.6538C115.798 35.6538 119.213 38.9065 119.213 42.9188Z" fill="white"/>
<path fill-rule="evenodd" clip-rule="evenodd" d="M86.5396 115.644C97.771 115.644 106.876 106.539 106.876 95.3074C106.876 84.076 97.771 74.9712 86.5396 74.9712C75.3082 74.9712 66.2033 84.076 66.2033 95.3074C66.2033 106.539 75.3082 115.644 86.5396 115.644ZM86.5396 128C104.595 128 119.232 113.363 119.232 95.3074C119.232 77.2519 104.595 62.6149 86.5396 62.6149C68.484 62.6149 53.8471 77.2519 53.8471 95.3074C53.8471 113.363 68.484 128 86.5396 128Z" fill="white"/>
</svg>
