<svg width="146" height="146" viewBox="0 0 146 146" fill="none" xmlns="http://www.w3.org/2000/svg">
<g id="Frame 17">
<g id="Group 1">
<path id="u" d="M85.7233 98.6069C87.4858 98.6069 88.9772 97.9568 90.1975 96.6564C91.4177 95.4245 92.0279 93.9189 92.0279 92.1395V65.4485C92.0279 60.9316 91.1466 56.6542 89.384 52.6163C87.6892 48.6469 85.3504 45.1566 82.3676 42.1453C79.4525 39.2024 75.9952 36.8413 71.9955 35.0619C68.0635 33.3509 63.8605 32.4954 59.3862 32.4954C54.8442 32.4954 50.5733 33.3509 46.5736 35.0619C42.6417 36.8413 39.1843 39.2024 36.2015 42.1453C33.2865 45.1566 30.9477 48.6469 29.1851 52.6163C27.4903 56.6542 26.6429 60.9316 26.6429 65.4485V92.1395C26.6429 93.9189 27.253 95.4245 28.4733 96.6564C29.7613 97.9568 31.2866 98.6069 33.0492 98.6069C34.8118 98.6069 36.3032 97.9568 37.5234 96.6564C38.7437 95.4245 39.3538 93.9189 39.3538 92.1395V65.4485C39.3538 62.6426 39.8622 60.0077 40.8791 57.5439C41.9638 55.1486 43.3874 53.027 45.15 51.1791C46.9804 49.3313 49.1158 47.8599 51.5563 46.7649C53.9968 45.7383 56.6068 45.225 59.3862 45.225C62.0979 45.225 64.674 45.7383 67.1145 46.7649C69.555 47.8599 71.6904 49.3313 73.5208 51.1791C75.3511 53.027 76.7748 55.1486 77.7916 57.5439C78.8763 60.0077 79.4186 62.6426 79.4186 65.4485H79.3169V92.1395C79.3169 93.9189 79.9271 95.4245 81.1473 96.6564C82.4354 97.9568 83.9607 98.6069 85.7233 98.6069Z" fill="#C2FE00"/>
<path id="u_2" d="M112.767 62.4524C114.549 62.4524 116.057 63.1026 117.291 64.4029C118.524 65.6348 119.141 67.1404 119.141 68.9198V95.6108C119.141 100.128 118.25 104.405 116.468 108.443C114.755 112.412 112.39 115.903 109.374 118.914C106.426 121.857 102.931 124.218 98.8864 125.997C94.9108 127.708 90.661 128.564 86.137 128.564C81.5445 128.564 77.2262 127.708 73.1821 125.997C69.2065 124.218 65.7107 121.857 62.6947 118.914C59.7473 115.903 57.3825 112.412 55.6003 108.443C53.8867 104.405 53.0299 100.128 53.0299 95.6108V68.9198C53.0299 67.1404 53.6468 65.6348 54.8806 64.4029C56.183 63.1026 57.7252 62.4524 59.5074 62.4524C61.2895 62.4524 62.7975 63.1026 64.0313 64.4029C65.2651 65.6348 65.882 67.1404 65.882 68.9198V95.6108C65.882 98.4168 66.3961 101.052 67.4243 103.515C68.521 105.911 69.9605 108.032 71.7426 109.88C73.5933 111.728 75.7525 113.199 78.2201 114.294C80.6877 115.321 83.3267 115.834 86.137 115.834C88.8788 115.834 91.4835 115.321 93.9512 114.294C96.4188 113.199 98.5779 111.728 100.429 109.88C102.279 108.032 103.719 105.911 104.747 103.515C105.844 101.052 106.392 98.4168 106.392 95.6108H106.289V68.9198C106.289 67.1404 106.906 65.6348 108.14 64.4029C109.442 63.1026 110.985 62.4524 112.767 62.4524Z" fill="#C2FE00"/>
<path id="Ellipse 3" d="M119.213 43.5731C119.213 47.5855 115.798 50.8381 111.585 50.8381C107.372 50.8381 103.957 47.5855 103.957 43.5731C103.957 39.5608 107.372 36.3081 111.585 36.3081C115.798 36.3081 119.213 39.5608 119.213 43.5731Z" fill="#C2FE00"/>
<path id="Ellipse 1 (Stroke)" fill-rule="evenodd" clip-rule="evenodd" d="M86.5396 116.298C97.771 116.298 106.876 107.193 106.876 95.9618C106.876 84.7304 97.771 75.6255 86.5396 75.6255C75.3082 75.6255 66.2033 84.7304 66.2033 95.9618C66.2033 107.193 75.3082 116.298 86.5396 116.298ZM86.5396 128.654C104.595 128.654 119.232 114.017 119.232 95.9618C119.232 77.9062 104.595 63.2693 86.5396 63.2693C68.484 63.2693 53.8471 77.9062 53.8471 95.9618C53.8471 114.017 68.484 128.654 86.5396 128.654Z" fill="#C2FE00"/>
</g>
</g>
</svg>
