<svg width="146" height="146" viewBox="0 0 146 146" fill="none" xmlns="http://www.w3.org/2000/svg">
<g id="Frame 17">
<g id="Group 18">
<g id="Group 5">
<path id="u" d="M54.1784 45.4401C54.1784 43.607 54.8614 42.0559 56.2275 40.7869C57.5216 39.5178 59.1033 38.8833 60.9725 38.8833L89.0116 38.8833C93.7567 38.8833 98.2501 39.7998 102.492 41.6329C106.662 43.3955 110.329 45.8278 113.492 48.93C116.583 51.9616 119.064 55.5572 120.933 59.7169C122.73 63.8061 123.629 68.1772 123.629 72.8304C123.629 77.5541 122.73 81.9958 120.933 86.1555C119.064 90.2446 116.583 93.8403 113.492 96.9424C110.329 99.974 106.662 102.406 102.492 104.239C98.2501 106.002 93.7567 106.883 89.0116 106.883L60.9725 106.883C59.1033 106.883 57.5216 106.249 56.2275 104.98C54.8614 103.64 54.1784 102.054 54.1784 100.221C54.1784 98.3877 54.8614 96.8366 56.2275 95.5676C57.5216 94.2985 59.1033 93.664 60.9725 93.664L89.0116 93.664C91.9593 93.664 94.7273 93.1352 97.3155 92.0777C99.8318 90.9497 102.061 89.4691 104.002 87.636C105.943 85.7324 107.489 83.5116 108.639 80.9735C109.717 78.4354 110.257 75.721 110.257 72.8304C110.257 70.0103 109.717 67.3312 108.639 64.7931C107.489 62.255 105.943 60.0342 104.002 58.1306C102.061 56.227 99.8318 54.7464 97.3155 53.6889C94.7273 52.5609 91.9593 51.9968 89.0116 51.9968L89.0116 52.1026L60.9725 52.1026C59.1033 52.1026 57.5216 51.4681 56.2275 50.199C54.8614 48.8595 54.1784 47.2731 54.1784 45.4401Z" fill="white"/>
<path id="Ellipse 3" d="M54.0677 64.9951C58.2827 64.9951 61.6997 68.5079 61.6997 72.8412C61.6997 77.1745 58.2827 80.6874 54.0677 80.6874C49.8527 80.6874 46.4358 77.1745 46.4358 72.8412C46.4358 68.5079 49.8527 64.9951 54.0677 64.9951Z" fill="white"/>
</g>
<path id="Ellipse 1 (Stroke)" fill-rule="evenodd" clip-rule="evenodd" d="M56.8437 93.9716C68.6424 93.9716 78.2072 84.5132 78.2072 72.8456C78.2072 61.178 68.6424 51.7195 56.8437 51.7195C45.045 51.7195 35.4803 61.178 35.4803 72.8456C35.4803 84.5132 45.045 93.9716 56.8437 93.9716ZM56.8437 106.808C75.8113 106.808 91.1875 91.6023 91.1875 72.8456C91.1875 54.0888 75.8113 38.8834 56.8437 38.8834C37.8762 38.8834 22.5 54.0888 22.5 72.8456C22.5 91.6023 37.8762 106.808 56.8437 106.808Z" fill="white"/>
</g>
</g>
</svg>
