<svg width="146" height="146" viewBox="0 0 146 146" fill="none" xmlns="http://www.w3.org/2000/svg">
<g id="Frame 17">
<g id="Group 3">
<path id="u" d="M97.2675 100.355C98.901 100.355 100.283 99.7526 101.414 98.5475C102.545 97.4058 103.111 96.0103 103.111 94.3612V69.6239C103.111 65.4376 102.294 61.4733 100.66 57.731C99.0895 54.0521 96.9219 50.8173 94.1574 48.0264C91.4557 45.299 88.2514 43.1107 84.5445 41.4615C80.9004 39.8758 77.005 39.0829 72.8582 39.0829C68.6486 39.0829 64.6904 39.8758 60.9835 41.4615C57.3393 43.1107 54.135 45.299 51.3705 48.0264C48.6689 50.8173 46.5013 54.0521 44.8677 57.731C43.297 61.4733 42.5116 65.4376 42.5116 69.6239V94.3612C42.5116 96.0103 43.0771 97.4058 44.208 98.5475C45.4018 99.7526 46.8154 100.355 48.449 100.355C50.0825 100.355 51.4648 99.7526 52.5957 98.5475C53.7267 97.4058 54.2921 96.0103 54.2921 94.3612V69.6239C54.2921 67.0233 54.7633 64.5813 55.7058 62.2979C56.711 60.0779 58.0305 58.1116 59.664 56.399C61.3604 54.6864 63.3396 53.3227 65.6014 52.3078C67.8633 51.3564 70.2822 50.8807 72.8582 50.8807C75.3714 50.8807 77.7589 51.3564 80.0208 52.3078C82.2826 53.3227 84.2618 54.6864 85.9582 56.399C87.6546 58.1116 88.974 60.0779 89.9164 62.2979C90.9217 64.5813 91.4243 67.0233 91.4243 69.6239H91.3301V94.3612C91.3301 96.0103 91.8955 97.4058 93.0265 98.5475C94.2202 99.7526 95.6339 100.355 97.2675 100.355Z" fill="white"/>
<path id="u_2" d="M97.2675 66.689C98.901 66.689 100.283 67.2915 101.414 68.4967C102.545 69.6384 103.111 71.0338 103.111 72.683V97.4203C103.111 101.607 102.294 105.571 100.66 109.313C99.0895 112.992 96.9219 116.227 94.1574 119.018C91.4557 121.745 88.2514 123.934 84.5445 125.583C80.9004 127.168 77.005 127.961 72.8582 127.961C68.6486 127.961 64.6904 127.168 60.9835 125.583C57.3393 123.934 54.135 121.745 51.3705 119.018C48.6689 116.227 46.5013 112.992 44.8677 109.313C43.297 105.571 42.5116 101.607 42.5116 97.4203V72.683C42.5116 71.0338 43.0771 69.6384 44.208 68.4967C45.4018 67.2915 46.8154 66.689 48.449 66.689C50.0825 66.689 51.4648 67.2915 52.5957 68.4967C53.7267 69.6384 54.2921 71.0338 54.2921 72.683V97.4203C54.2921 100.021 54.7633 102.463 55.7058 104.746C56.711 106.966 58.0305 108.933 59.664 110.645C61.3604 112.358 63.3396 113.721 65.6014 114.736C67.8633 115.688 70.2822 116.163 72.8582 116.163C75.3714 116.163 77.7589 115.688 80.0208 114.736C82.2826 113.721 84.2618 112.358 85.9582 110.645C87.6546 108.933 88.974 106.966 89.9164 104.746C90.9217 102.463 91.4243 100.021 91.4243 97.4203H91.3301V72.683C91.3301 71.0338 91.8955 69.6384 93.0265 68.4967C94.2202 67.2915 95.6339 66.689 97.2675 66.689Z" fill="white"/>
<path id="Ellipse 3" d="M103.784 25.6165C103.784 29.3352 100.769 32.3497 97.0507 32.3497C93.3321 32.3497 90.3175 29.3352 90.3175 25.6165C90.3175 21.8979 93.3321 18.8833 97.0507 18.8833C100.769 18.8833 103.784 21.8979 103.784 25.6165Z" fill="white"/>
</g>
</g>
</svg>
