<svg width="146" height="145" viewBox="0 0 146 145" fill="none" xmlns="http://www.w3.org/2000/svg">
<path d="M60.1517 97.9525C58.3891 97.9525 56.8977 97.3023 55.6775 96.002C54.4572 94.7701 53.8471 93.2645 53.8471 91.4851V64.7941C53.8471 60.2772 54.7284 55.9998 56.491 51.9619C58.1857 47.9925 60.5246 44.5021 63.5074 41.4908C66.4224 38.548 69.8798 36.1869 73.8795 34.4075C77.8114 32.6965 82.0145 31.841 86.4887 31.841C91.0308 31.841 95.3016 32.6965 99.3013 34.4075C103.233 36.1869 106.691 38.548 109.673 41.4908C112.588 44.5021 114.927 47.9925 116.69 51.9619C118.385 55.9998 119.232 60.2772 119.232 64.7941V91.4851C119.232 93.2645 118.622 94.7701 117.402 96.002C116.114 97.3023 114.588 97.9525 112.826 97.9525C111.063 97.9525 109.572 97.3023 108.352 96.002C107.131 94.7701 106.521 93.2645 106.521 91.4851V64.7941C106.521 61.9881 106.013 59.3533 104.996 56.8895C103.911 54.4941 102.488 52.3725 100.725 50.5247C98.8946 48.6769 96.7591 47.2054 94.3187 46.1104C91.8782 45.0839 89.2682 44.5706 86.4887 44.5706C83.7771 44.5706 81.201 45.0839 78.7605 46.1104C76.32 47.2054 74.1845 48.6769 72.3542 50.5247C70.5238 52.3725 69.1002 54.4941 68.0833 56.8895C66.9986 59.3533 66.4563 61.9881 66.4563 64.7941H66.558V91.4851C66.558 93.2645 65.9479 94.7701 64.7276 96.002C63.4396 97.3023 61.9143 97.9525 60.1517 97.9525Z" fill="white"/>
<path d="M33.1082 61.7981C31.326 61.7981 29.8181 62.4482 28.5843 63.7486C27.3505 64.9805 26.7335 66.4861 26.7335 68.2655V94.9565C26.7335 99.4734 27.6246 103.751 29.4068 107.789C31.1204 111.758 33.4852 115.248 36.5012 118.26C39.4486 121.203 42.9444 123.564 46.9885 125.343C50.9641 127.054 55.2139 127.91 59.7379 127.91C64.3304 127.91 68.6487 127.054 72.6929 125.343C76.6685 123.564 80.1642 121.203 83.1802 118.26C86.1276 115.248 88.4924 111.758 90.2746 107.789C91.9882 103.751 92.845 99.4734 92.845 94.9565V68.2655C92.845 66.4861 92.2281 64.9805 90.9943 63.7486C89.692 62.4482 88.1497 61.7981 86.3675 61.7981C84.5854 61.7981 83.0774 62.4482 81.8436 63.7486C80.6098 64.9805 79.9929 66.4861 79.9929 68.2655V94.9565C79.9929 97.7624 79.4788 100.397 78.4506 102.861C77.3539 105.256 75.9145 107.378 74.1323 109.226C72.2816 111.074 70.1224 112.545 67.6548 113.64C65.1872 114.667 62.5482 115.18 59.7379 115.18C56.9961 115.18 54.3914 114.667 51.9238 113.64C49.4562 112.545 47.297 111.074 45.4463 109.226C43.5956 107.378 42.1561 105.256 41.128 102.861C40.0312 100.397 39.4829 97.7624 39.4829 94.9565H39.5857V68.2655C39.5857 66.4861 38.9688 64.9805 37.735 63.7486C36.4326 62.4482 34.8904 61.7981 33.1082 61.7981Z" fill="white"/>
<path d="M26.6618 42.9188C26.6618 46.9312 30.0771 50.1838 34.29 50.1838C38.503 50.1838 41.9183 46.9312 41.9183 42.9188C41.9183 38.9065 38.503 35.6538 34.29 35.6538C30.0771 35.6538 26.6618 38.9065 26.6618 42.9188Z" fill="white"/>
<path fill-rule="evenodd" clip-rule="evenodd" d="M59.3353 115.644C48.1039 115.644 38.9991 106.539 38.9991 95.3074C38.9991 84.076 48.1039 74.9711 59.3353 74.9711C70.5668 74.9711 79.6716 84.076 79.6716 95.3074C79.6716 106.539 70.5668 115.644 59.3353 115.644ZM59.3353 128C41.2798 128 26.6429 113.363 26.6429 95.3074C26.6429 77.2519 41.2798 62.6149 59.3353 62.6149C77.3909 62.6149 92.0278 77.2519 92.0278 95.3074C92.0278 113.363 77.3909 128 59.3353 128Z" fill="white"/>
</svg>
